# xmcd
#
# Track frame offsets:
#	150
#	18252
#	37221
#	52618
#	66854
#	83684
#	101489
#	119566
#	135365
#	150036
#	163786
#	178667
#	198302
#	213379
#	231226
#
# Disc length: 3327 seconds
#
# Revision: 1
# Processed by: cddbd v1.5.2PL0 Copyright (c) Steve Scherf et al.
# Submitted via: audiograbber 1.83.01
#
DISCID=bc0cfd0f
DTITLE=Various Artist - Forever and Ever New Country - Vol. 1
DYEAR=2010
DGENRE=Country
TTITLE0=Carrie Underwood - Don't Forget To Remeber Me
TTITLE1=Miranda Lambert - Me And Charlie Talking
TTITLE2=Jason Aldean - Big Green Tractor
TTITLE3=Alan Jackson - Too Much Of A Good Thing
TTITLE4=Kellie Pickler - Red High Heels
TTITLE5=Kenny Chesney - You Save Me
TTITLE6=Sara Evans - A Real Fine Place To Start
TTITLE7=Brad Paisley - Mus On The Tires
TTITLE8=Brooks and Dunn - PLay Something Country
TTITLE9=Tim McGraw - She Never Lets It Go To Her Heart
TTITLE10=Gretchen Wilson - Here For The Party
TTITLE11=Montgomery Gentry - She Couldn't Change Me
TTITLE12=Chris Young - Drinkin' Me Lonely
TTITLE13=Jake Owen - Startin' With Me
TTITLE14=Keith Anderson - She Could've Been Mine
EXTD=Compilation By Sony Music - Chart-Topping Hits - Original Artist
EXTT0=
EXTT1=
EXTT2=
EXTT3=
EXTT4=
EXTT5=
EXTT6=
EXTT7=
EXTT8=
EXTT9=
EXTT10=
EXTT11=
EXTT12=
EXTT13=
EXTT14=
PLAYORDER=
